<svg id="_5._Email_Collaboration" data-name="5. Email Collaboration" xmlns="http://www.w3.org/2000/svg" viewBox="0 0 800 600"><defs><style>.cls-1{fill:#eda19b;}.cls-2{fill:#0f2064;}.cls-3{fill:#fff;}</style></defs><title>5. Email Collaboration</title><path class="cls-1" d="M310.33,474.56a.75.75,0,0,1-.47-.16l-5.25-4.15a.76.76,0,0,1-.17-.19s-1.31-2.09-2.74-4.71a.75.75,0,1,1,1.32-.72c1.23,2.24,2.35,4.07,2.63,4.52l3.72,2.94-.6-5.08c-.45-.79-2.78-4.85-3.38-5.74a.75.75,0,0,1,1.25-.83c.69,1,3.39,5.76,3.51,6a.76.76,0,0,1,.09.28l.84,7a.75.75,0,0,1-.74.84Z"/><path class="cls-2" d="M283,423.64a.75.75,0,0,1-.71-.52,125.18,125.18,0,0,0-10.51-22.63.75.75,0,1,1,1.29-.76,126.68,126.68,0,0,1,10.64,22.93.75.75,0,0,1-.49.94A.73.73,0,0,1,283,423.64Z"/><path class="cls-1" d="M297.67,447a.75.75,0,0,1-.64-.36c-.06-.1-6.11-10.09-10.23-16.78l-.52-.84c-.52-.85-1-1.63-1.44-2.32-1.44-2.33-1.73-2.71-1.78-2.78a1.47,1.47,0,0,0-1.26-.24,1.87,1.87,0,0,0-1.46,1c0,.07,0,.72,1.58,3.45.51.9,1.17,2,2,3.3s1.93,3,3,4.63c1.37,2.1,2.84,4.34,4.26,6.6a.75.75,0,1,1-1.27.8c-1.42-2.25-2.88-4.49-4.25-6.58-1.08-1.65-2.1-3.22-3-4.64s-1.53-2.45-2-3.36c-1.74-3-1.93-4.07-1.68-4.74a3.33,3.33,0,0,1,2.62-1.95,2.84,2.84,0,0,1,2.66.75,33.63,33.63,0,0,1,1.9,2.95c.44.68.92,1.47,1.45,2.33l.52.84c4.13,6.7,10.17,16.7,10.23,16.8a.75.75,0,0,1-.64,1.14Z"/><path class="cls-2" d="M428.14,372.82a.75.75,0,0,1-.65-1.12c6.38-11.05,14.54-18.64,19.36-18a7,7,0,0,1,3.9,1.93c1.28,1.07,2.49,2.08,6,1.7.75-.08,1.95-3,2.91-5.42a65.28,65.28,0,0,1,3.6-7.83c3.06-5.39,6.64-11.19,10.42-11.7a4.3,4.3,0,0,1,3.7,1.43c4.3,4.34,13.31,11.74,13.4,11.81a.75.75,0,0,1-1,1.16c-.09-.08-9.16-7.52-13.52-11.92a2.82,2.82,0,0,0-2.44-1c-3.37.45-7.24,7.28-9.32,11a64.08,64.08,0,0,0-3.51,7.65c-1.5,3.72-2.5,6.17-4.13,6.35-4.12.46-5.71-.87-7.1-2a5.53,5.53,0,0,0-3.13-1.59c-3.63-.47-11.3,5.88-17.88,17.28A.75.75,0,0,1,428.14,372.82Z"/><path class="cls-2" d="M502.49,198.67c-.87-15-5.24-20.31-13.07-24.44s-27.1-1.12-27.1-1.12c4.45,9.59,5,20.57,4.17,25.74C466.48,198.85,492.06,197.85,502.49,198.67Z"/><path class="cls-2" d="M466.48,199.6a.75.75,0,0,1-.74-.87c.8-4.88.37-15.65-4.11-25.3a.75.75,0,0,1,.56-1.06c.79-.13,19.47-3.08,27.57,1.2,7.85,4.15,12.57,9.58,13.47,25.06a.75.75,0,0,1-.22.58.76.76,0,0,1-.58.21c-10.27-.81-35.67.16-35.92.17Zm-3.08-25.89a51.5,51.5,0,0,1,3.94,24.36c4.49-.16,24.69-.82,34.34-.2-1-14.2-5.21-19.06-12.62-23C482.42,171.38,467.37,173.16,463.41,173.71Z"/><path class="cls-2" d="M598.32,486.61a.75.75,0,0,1-.23-1.46c6.56-2.15,10.31-8,10.55-16.39a.75.75,0,1,1,1.5,0c-.26,9-4.48,15.44-11.58,17.78A.76.76,0,0,1,598.32,486.61Z"/><path class="cls-2" d="M262,318.82c-3.13,2.83-1.22,3-1.29,6.54,0,1.8-4.08,4-8,5.73-.66-3-1.43-6.23-2.26-9.82-3.27-14.15-6-15.67-7.55-14.08-2.05,2.16-3.12,1.24-6,.73s-2.25,4.42-5,3.12-5.15-1.31-5.8,1.88-4.86,1.09-4.43,3.56.37,4.64-.94,5.6a3.43,3.43,0,0,0-.43,5.43c2.1,2.32,1,2.46.94,4.93a27.44,27.44,0,0,0,.8,5.95,9.17,9.17,0,0,0-4.33-1.66,12.12,12.12,0,0,0-6.24.81c-3.19,1.36-5.33,4.21-3.87,8.32a9.61,9.61,0,0,0,.54,1.25c-4.57,3.65-8.3,5.56-10.68,2.59-3.23-4-1.76-6.55-6-7.92s-5.93-5.44-5.47-13.29c.2-3.32-5.47-3.22-2.83-8.8s4.3-6.93,2.73-10.55.79-5.77,1.57-7.82-1.57-6,2.44-8.5,7.92.19,12-4.79,7.57-1.86,11.26-2,4.28-2.24,7.6-5,5.77-.88,8.7,0,5.08-1.86,8.6-.68,2,2.44,6.16,2.15,4.5,4.59,6.45,5.66,8.5.59,8.5,5.48,1.27,6.35,3.42,8.31-.19,4.39,0,8S265.09,316,262,318.82Z"/><path class="cls-1" d="M245.06,304.85c-18-6-32.49,3.87-27.44,31.88a12.12,12.12,0,0,0-6.24.81C202.55,306.12,230.38,290.52,245.06,304.85Z"/><path class="cls-2" d="M441.52,167a.75.75,0,0,1-.69-1,134.71,134.71,0,0,0,5.33-16.38,7.81,7.81,0,0,1-4.3-7.8c.15-3.17,2-5.62,4.54-6.1,1.86-.35,4.34.42,6,3.49.78-.85,2-2.82,1.91-6.66-.1-4,2-5.86,2.08-5.93a.75.75,0,0,1,.83-.09c.33.17,3.36,1.54,5.67-2.87a.75.75,0,1,1,1.33.69,7,7,0,0,1-4,3.76,5.23,5.23,0,0,1-3.17,0,6.71,6.71,0,0,0-1.26,4.44c.16,6.46-3.13,8.46-3.27,8.54a.75.75,0,0,1-1.07-.34c-1.14-2.56-2.95-3.88-4.84-3.52-1.56.29-3.19,1.86-3.32,4.7-.24,5.25,3.87,6.57,3.91,6.58a.75.75,0,0,1,.51.9,142,142,0,0,1-5.56,17.23A.75.75,0,0,1,441.52,167Z"/><path class="cls-2" d="M482.39,126.6a5.21,5.21,0,0,1-1.73-.29,3.94,3.94,0,0,1-2.28-1.94,4.54,4.54,0,0,1-3.75.81,4.33,4.33,0,0,1-2.95-2.53c-4,3.09-9.08,2.86-11.39.56a.75.75,0,1,1,1.06-1.06c2,2,6.68,1.93,10.19-1.34a.75.75,0,0,1,1.24.39,3.06,3.06,0,0,0,2.19,2.52,3.24,3.24,0,0,0,3.23-1.25.75.75,0,0,1,1.33.46,2.17,2.17,0,0,0,1.62,2,3.23,3.23,0,0,0,3.5-.78.75.75,0,1,1,1.15,1A4.37,4.37,0,0,1,482.39,126.6Z"/><path class="cls-2" d="M447,137.12a.75.75,0,0,1-.75-.73c0-.88-.09-2-.17-3.15-.4-6.39-1-15.9,3-18.74a6.32,6.32,0,0,1,9.36-7.16,5.3,5.3,0,0,1,4.53-3.77,5.14,5.14,0,0,1,5.38,3.07,4.9,4.9,0,0,1,4.38-1.89,6.13,6.13,0,0,1,5,4.11,5.7,5.7,0,0,1,6.06-.5,6.08,6.08,0,0,1,3.49,5.76,4.4,4.4,0,0,1,4.15.81,5.42,5.42,0,0,1,1.31,5.44,4.72,4.72,0,0,1-2.47,3.11,2.49,2.49,0,0,1,0,2.32c-.72,1.3-2.53,1.67-4,1.58a.75.75,0,0,1-.71-.79.74.74,0,0,1,.79-.71,2.94,2.94,0,0,0,2.58-.81c.26-.46-.09-1.12-.42-1.59a.75.75,0,0,1,.47-1.17,3.1,3.1,0,0,0,2.27-2.35,4,4,0,0,0-.86-3.92c-.86-.76-2.18-.81-3.8-.14a.75.75,0,0,1-1-.88,4.57,4.57,0,0,0-2.5-5.32,4.08,4.08,0,0,0-5.18,1.06.75.75,0,0,1-1.33-.32,4.85,4.85,0,0,0-4.06-4.2,3.64,3.64,0,0,0-3.76,2.54.73.73,0,0,1-.77.47.75.75,0,0,1-.66-.61c-.54-2.95-2.64-3.77-4.26-3.58a3.63,3.63,0,0,0-3.37,3.77.75.75,0,0,1-1.31.54,4.73,4.73,0,0,0-7.77,5.08.75.75,0,0,1-.34,1c-3.83,1.82-3.21,11.74-2.83,17.67.08,1.21.14,2.3.17,3.2a.75.75,0,0,1-.73.77Z"/><path class="cls-2" d="M466.47,169.4a11.15,11.15,0,0,1-2.48-.28,15.09,15.09,0,0,1-9.85-8.4.75.75,0,0,1,1.35-.65,13.58,13.58,0,0,0,8.83,7.59,9.45,9.45,0,0,0,8.23-2c8.31-6.64,12.18-22.28,9.86-39.84a.75.75,0,1,1,1.49-.2c2.39,18.07-1.69,34.24-10.41,41.21A11.18,11.18,0,0,1,466.47,169.4Z"/><path class="cls-2" d="M472.42,135.81a.75.75,0,0,1-.68-.44,2.72,2.72,0,0,0-1.83-1.63,3.37,3.37,0,0,0-2.86,1,.75.75,0,0,1-1-1.14,4.85,4.85,0,0,1,4.16-1.31,4.23,4.23,0,0,1,2.87,2.47.75.75,0,0,1-.68,1.06Z"/><path class="cls-2" d="M485.24,138.21a.75.75,0,0,1-.73-.57,1.82,1.82,0,0,0-1.12-1,2.9,2.9,0,0,0-2.77.58.75.75,0,1,1-.87-1.22,4.37,4.37,0,0,1,4.16-.77,3.26,3.26,0,0,1,2.06,2.05.75.75,0,0,1-.55.91Z"/><path class="cls-2" d="M473.67,156.81h-2.39a.75.75,0,0,1,0-1.5h2.21c.35-.49,1.13-2.74,2.1-12.84a.75.75,0,1,1,1.49.14C475.83,155.76,474.84,156.81,473.67,156.81Z"/><path class="cls-2" d="M468.87,159.78c-2.62,0-6.07-1.37-7.25-4.52a.75.75,0,1,1,1.4-.53c1.14,3,5,3.85,6.86,3.45a.75.75,0,0,1,.32,1.46A6.27,6.27,0,0,1,468.87,159.78Z"/><ellipse class="cls-2" cx="468.39" cy="144.54" rx="2.64" ry="1.88" transform="translate(185.67 544.98) rotate(-71.93)"/><ellipse class="cls-2" cx="479.42" cy="146.57" rx="2.27" ry="1.62" transform="translate(251.35 593.01) rotate(-79.94)"/><path class="cls-2" d="M437.06,168c-10.34-5.4-26.46-3.73-34.74,6,9.73,7.35,18.37,17.88,33.3,25.77C439.4,194,438.76,176,437.06,168Z"/><path class="cls-2" d="M435.62,200.47a.74.74,0,0,1-.35-.09c-10-5.3-17.35-11.88-23.81-17.68-3.28-2.94-6.37-5.73-9.59-8.16a.75.75,0,0,1-.12-1.08c8.74-10.26,25.49-11.47,35.65-6.16a.75.75,0,0,1,.39.51c1.69,8,2.39,26.35-1.54,32.32A.75.75,0,0,1,435.62,200.47Zm-32.21-26.63c3,2.35,6,5,9,7.75,6.25,5.62,13.33,12,22.88,17.13,3.21-6,2.55-22.73,1.05-30.25C426.92,163.72,411.74,164.78,403.42,173.84Z"/><path class="cls-2" d="M453.73,177.58a10.36,10.36,0,0,1-1.76-.16c-3.61-.62-6.41-2.69-9.37-4.87a53.64,53.64,0,0,0-5.43-3.66.75.75,0,1,1,.74-1.3,55,55,0,0,1,5.58,3.76c2.94,2.17,5.48,4,8.74,4.6,4.11.71,5.95-1.06,9-8.6a.75.75,0,0,1,1.39.56C460,174.4,457.94,177.58,453.73,177.58Z"/><path class="cls-2" d="M459.23,185.35a.75.75,0,0,1-.48-.17l-6.54-5.46-6.11,4.39a.75.75,0,0,1-1.13-.33c0-.07-3-7.42-5-13.31a.75.75,0,1,1,1.42-.49c1.6,4.65,3.79,10.22,4.63,12.35l5.81-4.17a.75.75,0,0,1,.92,0l6.37,5.32a33.05,33.05,0,0,0,3.79-6.67.75.75,0,1,1,1.4.53,36.17,36.17,0,0,1-4.46,7.68.75.75,0,0,1-.51.29Z"/><path class="cls-3" d="M480.21,202.18a.75.75,0,0,1-.75-.72c0-.09-.41-9.29-.47-14.37a.75.75,0,0,1,.74-.76h0a.75.75,0,0,1,.75.74c.07,5.05.47,14.23.47,14.32a.75.75,0,0,1-.72.78Z"/><path class="cls-1" d="M467.07,151.9c-3.86,0-7-3.41-7-7.6s3.14-7.6,7-7.6,7,3.41,7,7.6S470.93,151.9,467.07,151.9Zm0-13.7c-3,0-5.5,2.74-5.5,6.1s2.47,6.1,5.5,6.1,5.5-2.74,5.5-6.1S470.11,138.21,467.07,138.21Z"/><path class="cls-1" d="M482.71,154.42c-3.86,0-7-3.41-7-7.6s3.14-7.6,7-7.6,7,3.41,7,7.6S486.57,154.42,482.71,154.42Zm0-13.7c-3,0-5.5,2.74-5.5,6.1s2.47,6.1,5.5,6.1,5.5-2.74,5.5-6.1S485.74,140.72,482.71,140.72Z"/><path class="cls-1" d="M476.5,147.33a.74.74,0,0,1-.44-.14,6,6,0,0,0-2.71-.35.75.75,0,0,1-.25-1.48,6.78,6.78,0,0,1,3.84.61.75.75,0,0,1-.44,1.36Z"/><path class="cls-2" d="M514.55,249.51c11.59-11.77,32.7-34.66,34.48-43.17,0,0-11.34-4.57-13.1-15.51-6.11,3.17-17.26,12.12-20.88,16.25C516.88,216.16,515.3,233.13,514.55,249.51Z"/><path class="cls-2" d="M514.55,250.26a.75.75,0,0,1-.75-.78c.16-3.51.36-7.05.55-10.53.71-12.69,1.38-24.67,0-31.71a.75.75,0,0,1,.17-.64c3.69-4.21,15-13.26,21.1-16.42a.75.75,0,0,1,1.08.55c1.67,10.38,12.53,14.89,12.64,14.93a.75.75,0,0,1,.45.85c-2.09,10-29.25,38-34.68,43.54A.75.75,0,0,1,514.55,250.26Zm1.31-43c1.36,7.27.69,19.15,0,31.72-.16,2.83-.32,5.7-.46,8.55,14.17-14.52,30.52-33.17,32.75-40.81-2.35-1.1-10.74-5.6-12.76-14.79C529.41,195.35,519.52,203.29,515.86,207.3Z"/><path class="cls-2" d="M535.93,191.59a.75.75,0,0,1-.74-.64c-.3-2-.83-4.22-1.35-6.4-1.41-5.95-2.75-11.57.11-13.18a12.86,12.86,0,0,1,7.26-1.29.75.75,0,1,1-.14,1.49,11.58,11.58,0,0,0-6.38,1.1c-1.88,1.06-.56,6.62.61,11.52.53,2.21,1.07,4.49,1.38,6.52a.75.75,0,0,1-.63.85Z"/><path class="cls-2" d="M546,205.48a.75.75,0,0,1-.65-1.12,24.33,24.33,0,0,0,3-8,.74.74,0,0,1,.83-.66.75.75,0,0,1,.66.83,25.55,25.55,0,0,1-3.14,8.58A.75.75,0,0,1,546,205.48Z"/><path class="cls-2" d="M544.38,188.69a.74.74,0,0,1-.43-.14.75.75,0,0,1-.18-1,23.36,23.36,0,0,0,3.53-8.57.75.75,0,1,1,1.48.22,24.66,24.66,0,0,1-3.79,9.22A.75.75,0,0,1,544.38,188.69Z"/><path class="cls-2" d="M554.33,193.37A.75.75,0,0,1,554,192c3-1.61,9.89-6.06,9.7-12.59a.75.75,0,0,1,.73-.77.71.71,0,0,1,.77.73c.21,7.09-6.48,11.79-10.48,14A.74.74,0,0,1,554.33,193.37Z"/><path class="cls-2" d="M555.23,199.4a.75.75,0,0,1-.36-1.41c6.52-3.49,9.53-7.25,10.18-9.6a.75.75,0,1,1,1.45.4c-.95,3.43-5,7.36-10.92,10.52A.75.75,0,0,1,555.23,199.4Z"/><path class="cls-1" d="M555.57,188.33h-.1a.75.75,0,0,1-.65-.69l-2.45-31.79a.75.75,0,0,1,.24-.61.76.76,0,0,1,.63-.18c3.82.68,13.57,2.45,13.57,2.45a.75.75,0,0,1,.56,1c-.07.18-7.34,18.52-11.1,29.31A.75.75,0,0,1,555.57,188.33Zm-1.63-31.63L556,184c3.4-9.39,8.29-21.85,9.6-25.19Z"/><path class="cls-1" d="M555.56,188.33a.75.75,0,0,1-.57-.26l-1.32-1.55c-2.93-3.42-17.74-20.81-21-27a.75.75,0,0,1,.44-1.07l12.39-3.88a.75.75,0,0,1,.91.4c1,2.12,1.92,4.51,2.82,7.1a.8.8,0,0,1,0,.13c.14.39.29.85.44,1.3l.26.78c3.48,10.55,6.25,22.18,6.4,23.23a.75.75,0,0,1-.74.86Zm-21.17-28.76c3.71,6.25,15.95,20.73,19.77,25.21-1-4.19-3.1-12.24-5.68-20.07l-.26-.78c-.15-.45-.3-.9-.46-1.35a.74.74,0,0,1,0-.13c-.78-2.24-1.61-4.37-2.47-6.3Z"/><path class="cls-1" d="M555.56,187.58c-.12-.84-2.82-12.35-6.37-23.1-.24-.71-.47-1.43-.72-2.14v-.06l4.65-6.49Z"/><path class="cls-2" d="M460.28,403a.75.75,0,0,1-.75-.68,9.7,9.7,0,0,0-6.27-8.25c-2.65-1-4-3.49-4.1-7.58-.09-3.75-.17-7-6.21-7.93a.75.75,0,1,1,.23-1.48c7.27,1.14,7.38,5.52,7.48,9.37.09,3.46,1.08,5.43,3.13,6.21a11.19,11.19,0,0,1,7.23,9.52.75.75,0,0,1-.68.81Z"/><path class="cls-2" d="M501.71,482.74a31.34,31.34,0,0,1-25.42-13.6c-11.38-16.14-22.75-52.83-22.86-53.2-1.2-3.9-1.83-4.27-3.69-5.37l-1-.58c-3-1.84-4.29-4.67-6.43-13.74a.75.75,0,1,1,1.46-.34c2.17,9.18,3.39,11.33,5.76,12.8l.93.56c2.23,1.31,3.06,2,4.37,6.22.11.37,11.41,36.83,22.66,52.77,10.58,15,27.85,14.69,34.55,10.31a.75.75,0,1,1,.82,1.26A20.65,20.65,0,0,1,501.71,482.74Z"/><path class="cls-2" d="M458.71,392.63a.75.75,0,0,1-.54-1.27c1.12-1.15,2-2.15,2.63-2.8a.75.75,0,0,1,1.11,1c-.6.66-1.53,1.67-2.67,2.84A.75.75,0,0,1,458.71,392.63Z"/><path class="cls-2" d="M462.43,396.47a.75.75,0,0,1-.53-1.28,27.71,27.71,0,0,0,4.78-7.15.75.75,0,0,1,1.35.65,29.19,29.19,0,0,1-5.07,7.56A.75.75,0,0,1,462.43,396.47Z"/><path class="cls-2" d="M466.92,398.88a.75.75,0,0,1-.51-1.3c2.09-2,5.83-9.29,6.26-10.12a.75.75,0,0,1,1.34.68c-.71,1.39-4.34,8.44-6.56,10.54A.75.75,0,0,1,466.92,398.88Z"/><path class="cls-2" d="M492.62,445a.75.75,0,0,1-.61-.32l-22.92-32.61a.75.75,0,0,1-.06-.76,19,19,0,0,0,.09-16.5l-.07-.1a.75.75,0,0,1,1-1c.43.23,4.86,8.32.5,17.88l22.67,32.25a.75.75,0,0,1-.61,1.18Z"/><path class="cls-2" d="M548.83,340.8h-.06a.75.75,0,0,1-.69-.8c.22-2.87.67-6.5,1.35-10.8a.75.75,0,0,1,1.48.23c-.67,4.26-1.12,7.85-1.34,10.68A.75.75,0,0,1,548.83,340.8Z"/><path class="cls-2" d="M560,374.76c-3.68,0-6.61-.77-7.49-2.15-2-3.08-3.47-8.41-4.18-15a.75.75,0,1,1,1.49-.16c.68,6.37,2.08,11.47,3.95,14.35,1.11,1.72,10.17,2.4,17.63-.91a.75.75,0,1,1,.61,1.37A30.79,30.79,0,0,1,560,374.76Z"/><path class="cls-2" d="M549.12,358.28H549c-.14,0-3.51-.5-5-2.3s2-10.87,4.07-16.2a.75.75,0,1,1,1.4.55c-2.45,6.24-4.78,13.65-4.27,14.74.87,1.08,3.16,1.61,4,1.72a.75.75,0,0,1-.1,1.49Z"/><path class="cls-2" d="M563.29,385.59a.75.75,0,0,1-.75-.72,76.05,76.05,0,0,0-1.24-10.79.75.75,0,1,1,1.47-.31,75.71,75.71,0,0,1,1.27,11,.75.75,0,0,1-.72.78Z"/><path class="cls-2" d="M586.29,383.87h-.1a.75.75,0,0,1-.64-.84c1.19-8.72,2-15.39,2-15.45a.75.75,0,0,1,1.49.17c0,.07-.78,6.75-2,15.48A.75.75,0,0,1,586.29,383.87Z"/><ellipse class="cls-2" cx="553.59" cy="342.19" rx="2.64" ry="1.88" transform="translate(153.89 855.8) rotate(-83.83)"/><path class="cls-2" d="M549.83,363.18a.75.75,0,0,1,0-1.5c2.61-.13,4.78-2.07,5-3.71a.75.75,0,0,1,1.49.17c-.29,2.57-3.21,4.88-6.38,5Z"/><path class="cls-2" d="M562.43,304.3c-11,.35-20.74,11.17-18.86,21.22S557,336.87,561,336.76c2.57-.07,2.84,11.37,2.84,11.37s3.74-.69,4.58-4,5.13-5.37,7.84-2-.07,12.32-5.41,13a10.2,10.2,0,0,0,8.18,2.85s-1,5.74,1,8.38c3.25,4.28,13.26,3.05,13.26,3.05s-1.77-12.21,1.49-16.37S605,339.33,604.53,322C604,301.87,579.42,292.58,562.43,304.3Z"/><path class="cls-1" d="M378.61,105a.75.75,0,0,1-.42-1.37l5-3.32a.75.75,0,0,1,.83,1.25l-5,3.31A.75.75,0,0,1,378.61,105Z"/><path class="cls-1" d="M550.12,139.24a.75.75,0,0,1-.7-.48c-1.39-3.52-2.9-7-4.51-10.38a.75.75,0,1,1,1.35-.65c1.62,3.39,3.15,6.92,4.55,10.48a.75.75,0,0,1-.42,1A.74.74,0,0,1,550.12,139.24Zm-9.8-20.5a.75.75,0,0,1-.65-.38c-1.92-3.34-4-6.55-6-9.54a.75.75,0,1,1,1.23-.86c2.12,3,4.18,6.28,6.12,9.65a.75.75,0,0,1-.65,1.12Zm-13.06-18.56a.75.75,0,0,1-.57-.26,89.81,89.81,0,0,0-7.89-8,.75.75,0,1,1,1-1.12,91.49,91.49,0,0,1,8,8.17.75.75,0,0,1-.57,1.24Zm-134.1-4.63a.75.75,0,0,1-.4-1.38c3.5-2.21,6.68-4.14,9.72-5.92a.75.75,0,0,1,.76,1.29c-3,1.77-6.19,3.7-9.68,5.9A.74.74,0,0,1,393.15,95.55Zm117.16-10.4a.74.74,0,0,1-.41-.12A66.35,66.35,0,0,0,500,79.68a.75.75,0,0,1,.6-1.37,67.8,67.8,0,0,1,10.08,5.47.75.75,0,0,1-.41,1.38Zm-97.52-1a.75.75,0,0,1-.35-1.42c3.61-1.87,7-3.46,10.31-4.88a.75.75,0,1,1,.59,1.38c-3.3,1.4-6.64,3-10.21,4.83A.75.75,0,0,1,412.79,84.15ZM489.62,76a.77.77,0,0,1-.21,0c-3.74-1.09-7.43-2-11-2.7a.75.75,0,0,1-.59-.88.76.76,0,0,1,.88-.59c3.57.71,7.31,1.63,11.09,2.73a.75.75,0,0,1-.21,1.47Zm-55.92-.66a.75.75,0,0,1-.22-1.47,92.33,92.33,0,0,1,11.11-2.72.75.75,0,0,1,.26,1.48,91,91,0,0,0-10.93,2.68A.74.74,0,0,1,433.71,75.36Zm33.65-3.67h-.07c-2.59-.22-5.19-.34-7.71-.34h0c-1.16,0-2.34,0-3.5.07a.75.75,0,0,1-.06-1.5c1.18,0,2.38-.07,3.57-.07,2.58,0,5.23.11,7.88.34a.75.75,0,0,1-.06,1.5Z"/><path class="cls-1" d="M555.56,155.74a.75.75,0,0,1-.73-.58s-.53-2.18-1.63-5.72a.75.75,0,1,1,1.43-.45c1.13,3.59,1.64,5.73,1.66,5.81a.75.75,0,0,1-.55.9Z"/><path class="cls-2" d="M317.13,391.2a.74.74,0,0,1-.35-.09.75.75,0,0,1-.32-1c9.68-18.45,16-46.21,11.93-52.11a23.48,23.48,0,0,0-2.5-2.68c-2.76-2.7-6.19-6.06-5.25-9.16a4.85,4.85,0,0,1,3-2.86c3.69-1.58,10-1.31,13.73.58a.75.75,0,0,1-.68,1.34c-3.41-1.72-9.12-2-12.46-.54a3.57,3.57,0,0,0-2.13,1.92c-.68,2.23,2.53,5.37,4.87,7.66a23.72,23.72,0,0,1,2.69,2.89c4.43,6.37-1.76,34.46-11.83,53.67A.75.75,0,0,1,317.13,391.2Z"/><path class="cls-2" d="M340.21,334.69a.75.75,0,0,1-.61-1.19c0-.06,4.5-6.23,5.87-11.53.75-2.92.34-3.88,0-4.19s-1.28-.4-2.61,0a.75.75,0,1,1-.4-1.45c1.22-.34,3-.66,4.06.41s1.12,2.77.38,5.63c-1.44,5.59-5.92,11.78-6.11,12A.75.75,0,0,1,340.21,334.69Z"/><path class="cls-2" d="M346.11,338.37a.75.75,0,0,1-.51-1.3A15.33,15.33,0,0,0,350.11,326c0-2.57-.71-4.06-1.27-4.57a.75.75,0,0,1,1-1.12c1.08,1,1.75,3.08,1.78,5.67a16.59,16.59,0,0,1-5,12.23A.75.75,0,0,1,346.11,338.37Z"/><path class="cls-2" d="M350.86,341.47a.75.75,0,0,1-.62-1.17c0-.06,3.71-5.63,4.15-9.48.2-1.78,0-2.93-.55-3.51s-1.43-.68-2.9-.53a.74.74,0,0,1-.82-.67.75.75,0,0,1,.67-.82c2-.2,3.27.11,4.12,1s1.23,2.43,1,4.73c-.48,4.21-4.23,9.9-4.39,10.14A.75.75,0,0,1,350.86,341.47Z"/><path class="cls-2" d="M332.78,324h-.09a.75.75,0,0,1-.65-.84c.72-5.78,5.41-17.82,9.65-23.1a.75.75,0,0,1,1.17.94c-4,5-8.64,16.8-9.33,22.34A.75.75,0,0,1,332.78,324Z"/><path class="cls-2" d="M304.12,427.89a68.73,68.73,0,0,1-15.66-2,.75.75,0,0,1,.34-1.46c8.11,1.91,32.79,7.71,45.76-15,13.32-23.31,15.19-41.49,13.92-65a.75.75,0,1,1,1.5-.08c1.29,23.8-.61,42.2-14.12,65.84C329.14,422,318.49,427.88,304.12,427.89Z"/><path class="cls-2" d="M301.6,425.41a.75.75,0,0,1-.51-.2c-9.92-9.17-6.16-25.94-.8-32,5.81-6.58,15.33-1.81,15.42-1.76a.75.75,0,0,1,.27,1.1A25,25,0,0,0,312,412.12c1.08,5.29,3.79,9.7,7.25,11.79a.75.75,0,0,1-.78,1.28c-3.86-2.34-6.75-7-7.94-12.77a26.59,26.59,0,0,1,3.67-20c-2.23-.9-8.69-2.92-12.82,1.76-5,5.68-8.56,21.35.7,29.91a.75.75,0,0,1-.51,1.3Z"/><path class="cls-2" d="M300,388.87a.75.75,0,0,1-.22,0c-17.74-5.32-27.09-10-32.67-12.85l-1.31-.66c-4.58-2.29-10.59-2.67-18.4-1.16a.75.75,0,0,1-.29-1.47c8.14-1.58,14.47-1.15,19.35,1.29l1.31.66c5.54,2.79,14.81,7.47,32.43,12.76a.75.75,0,0,1-.21,1.47Z"/><path class="cls-2" d="M186.53,461.88a.75.75,0,0,1-.73-.59c-2.68-12.2-5-25.75-1.7-45.39,3.4-20.15,16.11-33.07,38.81-39.41l.1,0q1.32-.37,2.68-.71a.75.75,0,0,1,.75.24c.06.07,5.8,6.55,16.81,10.53a.75.75,0,0,1,.26,1.25c-.07.07-7.09,6.75-8.4,13.85a.75.75,0,0,1-1.33.32c-.38-.49-9.14-11.92-11.23-23.8-21.61,6.25-33.72,18.71-37,38s-1,32.77,1.69,44.82a.75.75,0,0,1-.57.89ZM224,377.73c1.59,9.31,7.66,18.63,10,22,1.59-5.48,5.81-10.31,7.62-12.2a44.82,44.82,0,0,1-16-10.2Z"/><path class="cls-2" d="M207.57,509.25a.75.75,0,0,1-.75-.74,114.44,114.44,0,0,0-1.6-14.21.75.75,0,0,1,1.48-.24,113.48,113.48,0,0,1,1.62,14.42.75.75,0,0,1-.73.76Z"/><path class="cls-2" d="M268.58,499.63a.75.75,0,0,1-.73-.59c-.07-.33-1.77-8.25-.45-20.33a.74.74,0,0,1,.83-.66.75.75,0,0,1,.66.83,68.22,68.22,0,0,0,.43,19.84.75.75,0,0,1-.57.89Z"/><path class="cls-2" d="M289.19,497.6a.75.75,0,0,1-.75-.71c0-.12-.67-12.34-1.62-24.82a.75.75,0,0,1,.69-.8.76.76,0,0,1,.8.69c.95,12.5,1.61,24.73,1.62,24.86a.75.75,0,0,1-.71.79Z"/><path class="cls-2" d="M267,449.19h0a.75.75,0,0,1-.72-.78c.62-14.12-4.81-27.7-8.78-37.61-1.09-2.72-2-5.08-2.72-7.12a.75.75,0,1,1,1.42-.48c.68,2,1.61,4.34,2.69,7,4,10,9.52,23.79,8.88,38.23A.75.75,0,0,1,267,449.19Z"/><path class="cls-2" d="M222.08,455.13a.75.75,0,0,1-.74-.62c0-.11-1.83-11-1-28.6a.75.75,0,1,1,1.5.07c-.8,17.44,1,28.18,1,28.28a.75.75,0,0,1-.61.87Z"/><path class="cls-2" d="M251.88,396.62a.75.75,0,0,1-.44-.14l-10.16-7.33a.75.75,0,0,1,.88-1.22l9.16,6.61,1.25-8.37a.75.75,0,1,1,1.48.22L252.62,396a.75.75,0,0,1-.74.64Z"/><path class="cls-2" d="M209.95,488.73a26.21,26.21,0,0,1-12.45-2.92.75.75,0,1,1,.7-1.33c9.43,5,20.25,2.21,29.65-.77s28.31-7.77,46.94-12.43a11.27,11.27,0,0,1,2.17-.11c3.37,0,9.65,0,12-3.68l1.67-2.62c2-3.19,2.63-4.16,3.68-4.58,2.21-.89,8.65,1.51,8.72,1.54a.75.75,0,0,1-.53,1.4c-2.43-.91-6.54-2-7.64-1.55-.6.24-1.29,1.34-3,4l-1.67,2.63c-2.79,4.34-9.6,4.36-13.26,4.37a13.47,13.47,0,0,0-1.81.06c-18.6,4.66-37.55,9.45-46.85,12.41C222.51,487,216.2,488.73,209.95,488.73Z"/><path class="cls-2" d="M301.6,458.33a.75.75,0,0,1-.57-.27,41.29,41.29,0,0,0-12.82-6.16.75.75,0,0,1,.35-1.46c5.76,1.38,12.86,5.77,13.62,6.65a.75.75,0,0,1-.57,1.23Z"/><path class="cls-2" d="M303.39,454.17A.75.75,0,0,1,303,454l-.37-.24c-5.45-3.64-10.3-6.06-14.43-7.2a.75.75,0,1,1,.4-1.45c4.28,1.18,9.28,3.67,14.86,7.39l.35.23a.75.75,0,0,1-.41,1.38Z"/><path class="cls-2" d="M197.84,485.9h-.05a.75.75,0,0,1-.7-.8c2-29.33,24.52-29.73,37.95-30,12.9-.23,32.71-2.32,34.19-3.61,2.39-3.27,10.67-11,12.45-11.55,2-.67,11.11,2.75,20.68,7.8a.75.75,0,1,1-.7,1.33c-10.81-5.7-18.45-8.06-19.51-7.71-1.23.41-9.28,7.68-11.75,11-1.71,2.33-27.2,4-35.34,4.19-12.91.23-34.53.61-36.48,28.57A.75.75,0,0,1,197.84,485.9Z"/><path class="cls-2" d="M195.25,490.1c-1.17,0-2.44-.94-3.87-2.85-10.76-14.38-7-27.8,0-35.57,6.4-7,19.63-9.36,30.68-1.1a.75.75,0,1,1-.9,1.2c-10.37-7.75-22.73-5.62-28.68.91-6.67,7.33-10.17,20,0,33.67,1.69,2.25,2.55,2.31,2.84,2.23s1.36-.71,1.81-5.16l0-.19a.75.75,0,1,1,1.49.17l0,.17c-.4,3.91-1.35,6-2.9,6.45A2.14,2.14,0,0,1,195.25,490.1Z"/><path class="cls-1" d="M255.93,361.89a.75.75,0,0,1-.1-1.49,12.29,12.29,0,0,0-2.11-24.45.73.73,0,0,1-.78-.72.75.75,0,0,1,.72-.78A13.79,13.79,0,0,1,256,361.89Z"/><path class="cls-2" d="M323.19,364a.73.73,0,0,1-.28-.06c-9.28-3.82-20.75-11.07-32.89-18.76-8.42-5.33-17.13-10.84-25.26-15.26a.75.75,0,1,1,.72-1.32c8.17,4.44,16.9,10,25.34,15.31,12.08,7.65,23.5,14.87,32.66,18.64a.75.75,0,0,1-.29,1.44Z"/><path class="cls-2" d="M228.28,326.7l-.2,0a.75.75,0,0,1-.53-.92c1-3.59,3.15-5,6.49-4.21a.75.75,0,0,1-.35,1.46c-2.56-.61-3.92.29-4.69,3.14A.75.75,0,0,1,228.28,326.7Z"/><path class="cls-2" d="M241.1,321.12a.75.75,0,0,1-.65-1.13c.91-1.55,2-2.38,3.14-2.46s2.41.6,3.57,2a.75.75,0,0,1-1.17.94c-.58-.71-1.46-1.57-2.29-1.49s-1.51,1-2,1.73A.75.75,0,0,1,241.1,321.12Z"/><path class="cls-2" d="M227.17,374.18a.75.75,0,0,1-.74-.61A187.54,187.54,0,0,0,220.73,352c-2.38.5-10.14,1.59-13.34-4.59a10.31,10.31,0,0,1-.58-1.34,6.76,6.76,0,0,1,2.36-8.18,12.26,12.26,0,0,1,11.7-1.06,22.54,22.54,0,0,1-.46-4.45,9.66,9.66,0,0,1,.23-1.81c.19-.92.25-1.24-1-2.6a4.41,4.41,0,0,1-1.31-3.46,4.5,4.5,0,0,1,1.86-3.08c.89-.65,1.1-2.29.65-4.86a1.88,1.88,0,0,1,.25-1.46,2.83,2.83,0,0,1,2-.89c1.19-.2,1.94-.37,2.17-1.49a3.93,3.93,0,0,1,2-3c1.22-.61,2.87-.42,4.9.54.68.32.85.21,1.51-1,.54-1,1.36-2.52,3.31-2.17.6.11,1.13.23,1.6.34,1.75.41,2.41.56,3.75-.85a2.09,2.09,0,0,1,2.11-.67c2.32.64,4.51,5.57,6.71,15.09l.7,3c.56,2.42,1.09,4.68,1.56,6.8,2,9.15,2.94,15.57,1.51,21.29-3.18,12.65-14.89,10.74-15,10.71a.75.75,0,0,1,.26-1.48c.43.08,10.46,1.67,13.29-9.6,1.37-5.43.48-11.66-1.51-20.59-.47-2.12-1-4.37-1.56-6.79l-.7-3c-2.85-12.32-5-13.82-5.65-14-.09,0-.31-.09-.63.25-1.93,2-3.29,1.71-5.18,1.27-.45-.1-.95-.22-1.52-.32-.81-.14-1.13.3-1.73,1.41s-1.42,2.62-3.47,1.65c-1.58-.75-2.82-.94-3.59-.56a2.54,2.54,0,0,0-1.16,1.91c-.44,2.19-2.22,2.48-3.39,2.67a2.75,2.75,0,0,0-1,.28.57.57,0,0,0,0,.33c.58,3.23.17,5.3-1.24,6.33a3.06,3.06,0,0,0-1.25,2,3,3,0,0,0,.93,2.3c1.66,1.84,1.6,2.64,1.34,3.91a8.26,8.26,0,0,0-.2,1.55,26.87,26.87,0,0,0,.78,5.75.75.75,0,0,1-1.18.78c-2.95-2.23-8.3-2.16-11.45.16a5.21,5.21,0,0,0-1.83,6.46,8.83,8.83,0,0,0,.5,1.15c3.22,6.22,12.21,3.7,12.3,3.68a.75.75,0,0,1,.92.48,192,192,0,0,1,6,22.37.75.75,0,0,1-.6.88Z"/><path class="cls-2" d="M257.88,392.54a.75.75,0,0,1-.52-.21c-8-7.69-12.4-21.14-13-30.38a.75.75,0,1,1,1.5-.1c.59,8.46,4.37,20.54,11.32,28.11v-5.43c-1.12-1.24-6.38-7.24-7.15-11.43a.75.75,0,0,1,1.48-.27c.77,4.17,6.91,10.83,7,10.9a.75.75,0,0,1,.2.51v7.56a.75.75,0,0,1-.75.75Z"/><path class="cls-1" d="M287.44,429.45l-4.15,2.38c-.78-1.22-1.47-2.34-2-3.33,1.42-.76,3.07-1.62,4.21-2.22C286.05,427.19,286.71,428.27,287.44,429.45Z"/><path class="cls-1" d="M305.08,470.41a.75.75,0,0,1-.71-1c.52-1.53,2.31-4.21,5.32-3.36a.75.75,0,0,1-.4,1.45c-2.42-.67-3.46,2.28-3.5,2.4A.75.75,0,0,1,305.08,470.41Z"/><path class="cls-2" d="M245.37,343.86H245a.75.75,0,1,1,.12-1.49c.4,0,1.67,0,2.09-.61s-1-3.54-2.84-7.37c-.58-1.24-1.25-2.66-2-4.27a.75.75,0,1,1,1.36-.63c.74,1.61,1.4,3,2,4.26,2.68,5.71,3.58,7.63,2.71,8.86A3.77,3.77,0,0,1,245.37,343.86Z"/><ellipse class="cls-2" cx="235.29" cy="331.84" rx="1.88" ry="2.64" transform="translate(-68.37 61.16) rotate(-12.95)"/><ellipse class="cls-2" cx="246.89" cy="327.89" rx="1.72" ry="2.41" transform="translate(-67.19 63.65) rotate(-12.95)"/><path class="cls-2" d="M242.6,354.3a2.8,2.8,0,0,1-2.6-1.57c-.63-1.3-.31-3.31,1.82-4.85h0a6.61,6.61,0,0,1,5.33-1,2.63,2.63,0,0,1,1.81,1.36,2.14,2.14,0,0,1-.17,1.79,9,9,0,0,1-5.19,4.15A3.7,3.7,0,0,1,242.6,354.3Zm3.08-6.13a5.17,5.17,0,0,0-3,.93h0c-1.43,1-1.71,2.24-1.35,3a1.46,1.46,0,0,0,1.85.63,7.6,7.6,0,0,0,4.19-3.24,1.16,1.16,0,0,0,.2-.66,1.25,1.25,0,0,0-.83-.51A4.09,4.09,0,0,0,245.68,348.17Zm-3.42.32h0Z"/><path class="cls-2" d="M306.35,450.4a.75.75,0,0,1,0-1.5l14-.55c24.86-1,41.28-1.64,58.9-.67,20.62,1.14,72.09-1.16,81-2.55a.75.75,0,0,1,.23,1.48c-9,1.39-60.66,3.71-81.35,2.56-17.54-1-33.94-.32-58.75.67l-14,.55Z"/><path class="cls-2" d="M265.82,302.29a.75.75,0,0,1-.58-1.22,45.62,45.62,0,0,1,10.08-9.48.75.75,0,0,1,.8,1.27,45,45,0,0,0-9.72,9.15A.75.75,0,0,1,265.82,302.29Z"/><path class="cls-2" d="M274.8,335.55h0a.75.75,0,0,1-.75-.75c0-12.64.26-24.86.49-36.68.21-10.8.41-21,.43-30.86,0-7.75-.09-15.07-.19-22.15-.13-9.49-.26-18.46,0-26.4.07-2.37.14-4.14.23-5.76a11,11,0,0,1,11-11H499.87a11,11,0,0,1,11,11l-.12,5.76c-.25,10.31-.62,20.67-1,30.69-.64,17.65-1.25,34.32-1.23,51.1,0,8.21.18,16.94.58,28.3a.75.75,0,0,1-.72.78.76.76,0,0,1-.78-.72c-.4-11.39-.58-20.13-.58-28.36,0-16.81.59-33.49,1.23-51.16.36-10,.74-20.37,1-30.67l.12-5.74a9.52,9.52,0,0,0-9.51-9.49H286a9.52,9.52,0,0,0-9.51,9.51c-.09,1.64-.16,3.41-.23,5.76-.21,7.91-.09,16.86,0,26.33.1,7.08.2,14.41.19,22.17,0,9.87-.22,20.08-.43,30.89-.23,11.81-.47,24-.49,36.65A.75.75,0,0,1,274.8,335.55Z"/><path class="cls-2" d="M510,219.48H275.49a.75.75,0,0,1-.75-.77c.07-2.31.14-4.14.23-5.76a11,11,0,0,1,11-11H499.87a11,11,0,0,1,11,11v0l-.12,5.74A.75.75,0,0,1,510,219.48ZM276.27,218h233l.1-5a9.52,9.52,0,0,0-9.51-9.5H286a9.52,9.52,0,0,0-9.51,9.51C276.39,214.45,276.33,216,276.27,218Zm233.87-5h0Z"/><circle class="cls-2" cx="482.84" cy="210.73" r="2.56"/><circle class="cls-1" cx="491.32" cy="210.73" r="2.56"/><circle class="cls-2" cx="499.81" cy="210.73" r="2.56"/><path class="cls-2" d="M358.05,203.48a.75.75,0,0,1-.47-1.34c6.56-5.2,12.92-9.58,18-13.11,4-2.78,7.53-5.18,9.76-7.07,6.51-5.5,12.5-8.74,25.13,3.38S432.35,202,432.44,202a.75.75,0,0,1-.64,1.36c-.38-.18-9.35-4.5-22.33-16.94-11.75-11.27-17-8.49-23.12-3.31-2.29,1.93-5.64,4.24-9.88,7.16-5.09,3.51-11.44,7.87-18,13A.75.75,0,0,1,358.05,203.48Z"/><path class="cls-2" d="M427,274.39c-5.34,0-17.17-.24-27.36-.46a.75.75,0,0,1-.73-.77.79.79,0,0,1,.77-.73c11.76.26,25.72.54,29.28.44h0a.75.75,0,0,1,0,1.5Z"/><path class="cls-2" d="M315.45,274.38c-1.32,0-2.57,0-3.74,0a.75.75,0,0,1,0-1.5c7.6.19,18.88-.31,28.83-.75,6.52-.29,12.15-.54,15.57-.54s15.13.26,28.52.56l6.76.15a.75.75,0,0,1,.73.77.76.76,0,0,1-.77.73l-6.76-.15c-13.38-.3-24.93-.56-28.48-.56-3.39,0-9,.25-15.5.54C332.19,274,322.78,274.38,315.45,274.38Z"/><path class="cls-2" d="M525.77,397.75h-.14c-.69-.14-.82-.16-1.29-13.5-.24-6.79-.48-17.09-.29-27.61v-.24c.36-19.25.73-39.15-.84-44.24-.81-2.62-3.27-5.2-6.38-8.46a93.93,93.93,0,0,1-9.61-11.39.75.75,0,0,1,1.23-.86,92.6,92.6,0,0,0,9.47,11.21c3.25,3.41,5.81,6.1,6.73,9.05,1.65,5.33,1.29,24.46.91,44.71v.24c-.35,18.71.71,38.45.93,40.09a.75.75,0,0,1,0,.53A.76.76,0,0,1,525.77,397.75Z"/><path class="cls-2" d="M350.86,379.46a.75.75,0,0,1-.52-1.29c8.25-8.06,17.93-13.88,25.71-18.56,2.54-1.53,4.94-3,6.92-4.28,8.13-5.37,19.09-9.61,31.75,5.5a.75.75,0,0,1-1.15,1c-11.83-14.11-21.69-10.55-29.77-5.21-2,1.32-4.42,2.77-7,4.31-7.71,4.64-17.31,10.41-25.43,18.34A.75.75,0,0,1,350.86,379.46Z"/><path class="cls-2" d="M492.43,340.8a.75.75,0,0,1-.35-1.41c10.47-5.59,29.34-22.1,29.53-22.26a.75.75,0,1,1,1,1.13c-.78.68-19.19,16.79-29.81,22.46A.74.74,0,0,1,492.43,340.8Z"/><path class="cls-2" d="M496.86,421.36a.74.74,0,0,1-.33-.08c-.35-.17-8.85-4.42-22.67-17.3a.75.75,0,1,1,1-1.1c13.64,12.7,22.23,17,22.31,17.05a.75.75,0,0,1-.33,1.42Z"/><path class="cls-1" d="M319.11,231.33a.75.75,0,0,1-.06-1.5c8.16-.71,33.69-.32,47.41-.11,3.94.06,6.9.11,8.19.11a.75.75,0,0,1,0,1.5c-1.3,0-4.27,0-8.22-.11-13.69-.21-39.17-.6-47.26.1Z"/><path class="cls-1" d="M364.9,244.43l-3.27,0a.75.75,0,0,1-.74-.76.8.8,0,0,1,.76-.74c3.17.05,4.67,0,5.77,0,.78,0,1.37,0,2.21,0a.75.75,0,0,1,0,1.5c-.81,0-1.39,0-2.15,0S366,244.43,364.9,244.43Z"/><path class="cls-1" d="M319.57,245.11a.75.75,0,0,1-.08-1.5c7.5-.77,19.54-1.05,35.77-.85a.75.75,0,0,1,.74.76.76.76,0,0,1-.76.74c-16.17-.21-28.15.08-35.59.84Z"/><path class="cls-2" d="M469.82,288.07c-8.9,0-19.24-.12-27.33-.57-3.51-.2-7.79-.33-12.72-.39a.75.75,0,0,1,0-1.5h0c4.95.06,9.25.2,12.78.39,17.74,1,46.37.4,46.65.39a.74.74,0,0,1,.77.73.75.75,0,0,1-.73.77C489.1,287.89,480.5,288.07,469.82,288.07Z"/><path class="cls-2" d="M367.3,287.88c-5,0-10.47-.1-15.75-.22a.75.75,0,0,1-.73-.77.76.76,0,0,1,.77-.73c7.25.16,14.84.29,21.13.17l10.7-.22c10.34-.23,22.06-.48,33-.55h0a.75.75,0,0,1,0,1.5c-11,.07-22.67.32-33,.55l-10.71.22C371,287.87,369.19,287.88,367.3,287.88Z"/><path class="cls-2" d="M296.62,287.84a.75.75,0,0,1-.06-1.5c12.6-1.05,28.82-.78,45.73-.39a.75.75,0,1,1,0,1.5c-16.86-.39-33-.66-45.57.38Z"/><path class="cls-2" d="M304,300.8c-2.1,0-4.11,0-5.93-.09a.75.75,0,0,1-.72-.78.76.76,0,0,1,.78-.72c9.47.33,23.82-.32,31.54-.67,2.66-.12,4.58-.21,5.27-.21a.75.75,0,0,1,0,1.5c-.66,0-2.56.09-5.2.21C323.48,300.32,312.88,300.8,304,300.8Z"/><path class="cls-2" d="M464.11,300.88a.75.75,0,0,1,0-1.5l22.43-.25a.74.74,0,0,1,.76.74.75.75,0,0,1-.74.76l-22.43.25Z"/><path class="cls-2" d="M413.88,301.29H413c-4.77,0-11.14-.14-17.88-.28l-7-.14a.75.75,0,0,1-.74-.76.79.79,0,0,1,.76-.74l7,.14c6.73.14,13.1.28,17.85.28,8.47,0,28.47-.17,43.74-.33h0a.75.75,0,0,1,0,1.5C442,301.11,422.83,301.29,413.88,301.29Z"/><path class="cls-2" d="M348.49,301.29a.75.75,0,0,1-.07-1.5c8.11-.8,21.29-.72,31.87-.57a.75.75,0,0,1,0,1.5h0c-9.72-.15-23.58-.24-31.7.56Z"/><path class="cls-2" d="M309.34,314a85.66,85.66,0,0,1-11.34-.63.75.75,0,0,1,.21-1.49c7.33,1,17,.56,24.14.23,2.66-.12,5-.23,6.57-.23a.75.75,0,0,1,0,1.5c-1.57,0-3.86.11-6.5.23C318.56,313.74,313.95,314,309.34,314Z"/><path class="cls-1" d="M288.57,227.79h-1.81a3.71,3.71,0,0,1,0-1.69h5.54c0,.16.05.31.06.44a3.68,3.68,0,0,1,0,.39,5.13,5.13,0,0,1-.09.86h-1.81v6.07a5.86,5.86,0,0,1-1,.1,5.75,5.75,0,0,1-1-.1Z"/><path class="cls-1" d="M294.48,234a3.26,3.26,0,0,1-1.2-.21,2.32,2.32,0,0,1-.87-.59,2.54,2.54,0,0,1-.53-.92,3.74,3.74,0,0,1-.18-1.19,3.88,3.88,0,0,1,.18-1.21,2.58,2.58,0,0,1,.53-.94,2.34,2.34,0,0,1,.87-.6,3.56,3.56,0,0,1,2.42,0,2.34,2.34,0,0,1,.87.6,2.57,2.57,0,0,1,.53.94,3.88,3.88,0,0,1,.18,1.21,3.74,3.74,0,0,1-.18,1.19,2.53,2.53,0,0,1-.53.92,2.32,2.32,0,0,1-.87.59A3.29,3.29,0,0,1,294.48,234Zm0-1.48a.78.78,0,0,0,.71-.37,2,2,0,0,0,.23-1.05,2,2,0,0,0-.23-1.06.78.78,0,0,0-.71-.37.77.77,0,0,0-.7.37,2,2,0,0,0-.23,1.06,2,2,0,0,0,.23,1.05A.77.77,0,0,0,294.48,232.54Z"/><path class="cls-1" d="M288.77,244.91a3.89,3.89,0,0,1-.71-.34,2.27,2.27,0,0,1-.55-.46,2,2,0,0,1-.35-.61,2.41,2.41,0,0,1-.12-.81,2.52,2.52,0,0,1,.19-1,2.13,2.13,0,0,1,.55-.75,2.34,2.34,0,0,1,.85-.47,3.7,3.7,0,0,1,1.12-.16,5.18,5.18,0,0,1,1.07.11,8.81,8.81,0,0,1,1.1.31,5.49,5.49,0,0,1-.16.76,4.81,4.81,0,0,1-.29.79l-.66-.25a3,3,0,0,0-.94-.13,1.61,1.61,0,0,0-.33,0,1,1,0,0,0-.28.1.54.54,0,0,0-.2.19.58.58,0,0,0-.08.31.54.54,0,0,0,.21.47,2.06,2.06,0,0,0,.49.26l.52.21q.46.18.82.37a2.46,2.46,0,0,1,.62.46,1.81,1.81,0,0,1,.4.64,2.86,2.86,0,0,1-.06,1.94,2.15,2.15,0,0,1-.59.79,2.73,2.73,0,0,1-1,.51,4.36,4.36,0,0,1-1.31.18,5.8,5.8,0,0,1-1.19-.11,7.33,7.33,0,0,1-1.11-.34,6.05,6.05,0,0,1,.15-.81q.11-.43.26-.87a4.46,4.46,0,0,0,1.73.43,1.82,1.82,0,0,0,.86-.17.6.6,0,0,0,.31-.58.64.64,0,0,0-.06-.3.66.66,0,0,0-.17-.21,1.09,1.09,0,0,0-.24-.15l-.28-.11Z"/><path class="cls-1" d="M293,242.61a3.65,3.65,0,0,1,.47-.08l.45,0,.44,0a3.32,3.32,0,0,1,.47.08v3a1.35,1.35,0,0,0,.22.89.85.85,0,0,0,.66.24h.28l.14,0v-4.11a3.68,3.68,0,0,1,.47-.08l.45,0,.44,0a3.31,3.31,0,0,1,.47.08V248l-.44.13-.54.12-.59.09a5.64,5.64,0,0,1-.6,0,6.34,6.34,0,0,1-1.06-.09,2.2,2.2,0,0,1-.89-.35,1.81,1.81,0,0,1-.61-.77,3.33,3.33,0,0,1-.23-1.35Z"/><path class="cls-1" d="M299.13,242.63l.5-.06.57,0,.57,0h.48a4.19,4.19,0,0,1,2,.38,1.28,1.28,0,0,1,.67,1.2,1.24,1.24,0,0,1-.19.7,1.68,1.68,0,0,1-.51.49,1.91,1.91,0,0,1,.75.47,1.18,1.18,0,0,1,.29.86,1.42,1.42,0,0,1-.74,1.38,4.85,4.85,0,0,1-2.18.38l-1,0q-.61,0-1.25-.11Zm2.34,2.12a.68.68,0,0,0,.55-.18.6.6,0,0,0,.14-.37.49.49,0,0,0-.15-.34.72.72,0,0,0-.54-.16h-.28l-.27,0v1Zm-.53,2.25h.55a1.08,1.08,0,0,0,.65-.15.5.5,0,0,0,.2-.42.61.61,0,0,0,0-.21.4.4,0,0,0-.14-.18.79.79,0,0,0-.27-.12,1.75,1.75,0,0,0-.46,0h-.5Z"/><path class="cls-1" d="M421.06,390.8a.75.75,0,0,1-.73-.59c-6.91-32.65-7.21-66.54-5.49-72.72.57-2.06,4.32-2.11,15.44-2.28s27.7-.42,52.55-2.76a.75.75,0,0,1,.14,1.49c-24.91,2.35-42.29,2.61-52.67,2.76-7.68.12-13.74.21-14,1.18-1.37,5-1.61,38.38,5.51,72a.75.75,0,0,1-.58.89Z"/><path class="cls-2" d="M430,393.93a7.49,7.49,0,0,1-2.7-.39c-2.76-1.12-4.68-17.76-6.84-59.33-.11-2.18-.21-4-.28-5.31-.16-2.75.25-4.51,1.31-5.68,1.82-2,5.32-2.18,11.66-2.47,4.25-.2,10.06-.47,17.42-1.43,10.6-1.39,29.86-3.81,34.93-4.39a3.1,3.1,0,0,1,2.5.71c2.06,1.8,2.16,6.5,2.31,13.6.06,2.76.13,5.89.33,9.19.58,9.38,1.63,42.69.65,45-1.55,3.63-9.29,4.34-19.09,5.24-5.2.48-11.09,1-16.58,2.07a.75.75,0,0,1-.28-1.47c5.56-1.07,11.49-1.61,16.72-2.09,8.56-.79,16.65-1.53,17.85-4.33.72-2-.11-33.69-.77-44.31-.21-3.33-.27-6.47-.33-9.25-.13-6.22-.24-11.14-1.8-12.5a1.62,1.62,0,0,0-1.34-.35c-5.06.58-24.32,3-34.91,4.39-7.42,1-13.27,1.25-17.55,1.44-5.75.27-9.22.43-10.62,2-.77.85-1.05,2.27-.92,4.59.08,1.32.17,3.13.28,5.32,1.93,37.19,3.93,56.71,5.93,58,2.92,1.18,13.9-1.64,17.89-2.84a.75.75,0,0,1,.43,1.44C445,391.15,435.47,393.93,430,393.93Z"/><ellipse class="cls-1" cx="438.41" cy="342.58" rx="4.24" ry="5.07"/><path class="cls-2" d="M452.58,333.79a3.65,3.65,0,0,1-1-.15c-2.21-.65-3.66-3.17-3.87-6.73-.37-6.08-.53-16.77,2.51-20a3,3,0,0,1,2.27-1c4.69,0,5.21,8.83,5.23,9.21a.75.75,0,0,1-.71.79.76.76,0,0,1-.79-.71c-.12-2.17-1-7.79-3.73-7.79a1.58,1.58,0,0,0-1.17.56c-1.91,2-2.69,9.08-2.1,18.88.17,2.91,1.22,4.92,2.8,5.38a1.9,1.9,0,0,0,2.11-.66c1.77-2.42,1-11.86-.16-15.67-.13-.43-.39-.83-.68-.78-.69.15-2,2.24-1.34,7.5a.75.75,0,1,1-1.49.19c-.72-5.8.74-8.77,2.52-9.15.88-.19,2,.3,2.43,1.81,1.11,3.66,2.23,13.86-.06,17A3.34,3.34,0,0,1,452.58,333.79Z"/><path class="cls-1" d="M597.39,471.19c-4.87,33-6.4,45.46-6.4,45.46-17.72,26.68-51.35,3.13-81.6,3.67,1-7,4.28-28.5,8-49.73a35.5,35.5,0,0,1-29.13-16.07s12.7-33.14,27.15-46.34c9.5-8.68,21.86-13,38.62-14.4-1.22-2,4.13-9.18,19.54-11.9,14.19-2.51,20.44,6.21,18.83,12.35,8-.53,12.14,2.67,17,10.12,9.76,15,8.45,48.77,7.81,60.43C617.16,464.78,610.36,470.22,597.39,471.19Z"/><path class="cls-3" d="M598.21,466.4h-.11a.75.75,0,0,1-.63-.85c5-34.08,6.21-43.61,2.75-58.66a.75.75,0,1,1,1.46-.34c3.52,15.31,2.34,24.92-2.73,59.22A.75.75,0,0,1,598.21,466.4Z"/><path class="cls-3" d="M518.06,467.48h-.13a.75.75,0,0,1-.61-.87c3.06-17.24,5.66-29.81,7.74-37.35a.75.75,0,1,1,1.45.4c-2.06,7.5-4.65,20-7.71,37.22A.75.75,0,0,1,518.06,467.48Z"/><path class="cls-3" d="M560.42,395.66a16.7,16.7,0,0,1-6.87-1.18.75.75,0,1,1,.61-1.37c3.35,1.5,7.92,1.09,13.71.59a100.41,100.41,0,0,1,16.23-.47.75.75,0,1,1-.1,1.5,99.31,99.31,0,0,0-16,.47C565.21,395.44,562.69,395.66,560.42,395.66Z"/><path class="cls-1" d="M310.33,473.81l-2.44-1.93,2-1.38Z"/><path class="cls-1" d="M310.33,474.56a.75.75,0,0,1-.47-.16l-2.44-1.93a.75.75,0,0,1,0-1.21l2-1.38a.75.75,0,0,1,1.16.53l.4,3.31a.75.75,0,0,1-.74.84Zm-1.17-2.63.21.17,0-.28Z"/><path class="cls-1" d="M217.57,371.64a13.79,13.79,0,0,1-11.4-21.55.75.75,0,0,1,1.24.85,12.29,12.29,0,1,0,10.16-5.37.75.75,0,0,1,0-1.5,13.79,13.79,0,0,1,0,27.57Z"/></svg>